<svg width="24" height="20" viewBox="0 0 24 20" fill="none" xmlns="http://www.w3.org/2000/svg">
<path d="M22.125 17.2498H21V8.95757C20.9996 8.69868 20.9458 8.44266 20.8419 8.20553C20.738 7.9684 20.5863 7.75526 20.3962 7.57944L12.9009 0.504127L12.8859 0.490064C12.5415 0.174832 12.0915 0 11.6245 0C11.1576 0 10.7076 0.174832 10.3631 0.490064L10.3472 0.504127L2.85375 7.57944C2.66372 7.75526 2.51202 7.9684 2.40813 8.20553C2.30424 8.44266 2.25041 8.69868 2.25 8.95757V17.2498H1.125C0.826631 17.2498 0.540483 17.3683 0.329505 17.5793C0.118526 17.7902 0 18.0764 0 18.3748C0 18.6731 0.118526 18.9593 0.329505 19.1702C0.540483 19.3812 0.826631 19.4998 1.125 19.4998H22.125C22.4234 19.4998 22.7095 19.3812 22.9205 19.1702C23.1315 18.9593 23.25 18.6731 23.25 18.3748C23.25 18.0764 23.1315 17.7902 22.9205 17.5793C22.7095 17.3683 22.4234 17.2498 22.125 17.2498ZM4.5 9.11975L11.625 2.39319L18.75 9.11975V17.2498H15V13.1248C15 12.8785 14.9515 12.6347 14.8573 12.4072C14.763 12.1797 14.6249 11.973 14.4508 11.7989C14.2767 11.6248 14.07 11.4867 13.8425 11.3925C13.615 11.2983 13.3712 11.2498 13.125 11.2498H10.125C9.62772 11.2498 9.15081 11.4473 8.79918 11.7989C8.44754 12.1506 8.25 12.6275 8.25 13.1248V17.2498H4.5V9.11975ZM12.75 17.2498H10.5V13.4998H12.75V17.2498Z" fill="#1A1A1A"/>
</svg>
