<svg width="24" height="15" viewBox="0 0 24 15" fill="none" xmlns="http://www.w3.org/2000/svg">
<path d="M13.8751 2.62848C13.8751 2.33011 13.9936 2.04397 14.2046 1.83299C14.4156 1.62201 14.7017 1.50348 15.0001 1.50348H22.5001C22.7985 1.50348 23.0846 1.62201 23.2956 1.83299C23.5066 2.04397 23.6251 2.33011 23.6251 2.62848C23.6251 2.92685 23.5066 3.213 23.2956 3.42398C23.0846 3.63496 22.7985 3.75348 22.5001 3.75348H15.0001C14.7017 3.75348 14.4156 3.63496 14.2046 3.42398C13.9936 3.213 13.8751 2.92685 13.8751 2.62848ZM22.5001 6.00348H15.0001C14.7017 6.00348 14.4156 6.12201 14.2046 6.33299C13.9936 6.54397 13.8751 6.83011 13.8751 7.12848C13.8751 7.42685 13.9936 7.713 14.2046 7.92398C14.4156 8.13495 14.7017 8.25348 15.0001 8.25348H22.5001C22.7985 8.25348 23.0846 8.13495 23.2956 7.92398C23.5066 7.713 23.6251 7.42685 23.6251 7.12848C23.6251 6.83011 23.5066 6.54397 23.2956 6.33299C23.0846 6.12201 22.7985 6.00348 22.5001 6.00348ZM22.5001 10.5035H17.2501C16.9517 10.5035 16.6656 10.622 16.4546 10.833C16.2436 11.044 16.1251 11.3301 16.1251 11.6285C16.1251 11.9269 16.2436 12.213 16.4546 12.424C16.6656 12.635 16.9517 12.7535 17.2501 12.7535H22.5001C22.7985 12.7535 23.0846 12.635 23.2956 12.424C23.5066 12.213 23.6251 11.9269 23.6251 11.6285C23.6251 11.3301 23.5066 11.044 23.2956 10.833C23.0846 10.622 22.7985 10.5035 22.5001 10.5035ZM14.2145 12.8472C14.2514 12.9903 14.2598 13.1392 14.2392 13.2855C14.2186 13.4318 14.1693 13.5726 14.0943 13.6999C14.0192 13.8272 13.9199 13.9384 13.8018 14.0273C13.6838 14.1162 13.5494 14.1809 13.4063 14.2179C13.2633 14.2548 13.1144 14.2632 12.9681 14.2426C12.8217 14.2219 12.6809 14.1727 12.5537 14.0977C12.4264 14.0226 12.3151 13.9232 12.2263 13.8052C12.1374 13.6872 12.0727 13.5528 12.0357 13.4097C11.4995 11.3257 9.38822 9.75348 7.1251 9.75348C4.86197 9.75348 2.75072 11.3247 2.21447 13.4097C2.17754 13.5528 2.11279 13.6872 2.02392 13.8052C1.93505 13.9232 1.8238 14.0226 1.69653 14.0977C1.56925 14.1727 1.42844 14.2219 1.28214 14.2426C1.13584 14.2632 0.986904 14.2548 0.843845 14.2179C0.700787 14.1809 0.566403 14.1162 0.448368 14.0273C0.330334 13.9384 0.230958 13.8272 0.155917 13.6999C0.0808758 13.5726 0.0316378 13.4318 0.0110144 13.2855C-0.00960904 13.1392 -0.00121391 12.9903 0.0357204 12.8472C0.540095 10.8879 1.91916 9.26973 3.70228 8.34723C3.01338 7.66832 2.542 6.79983 2.34811 5.85224C2.15422 4.90466 2.24659 3.92082 2.61346 3.02588C2.98033 2.13094 3.60513 1.36536 4.40836 0.826538C5.21158 0.287714 6.15694 0 7.12416 0C8.09137 0 9.03673 0.287714 9.83996 0.826538C10.6432 1.36536 11.268 2.13094 11.6349 3.02588C12.0017 3.92082 12.0941 4.90466 11.9002 5.85224C11.7063 6.79983 11.2349 7.66832 10.546 8.34723C12.331 9.27067 13.7101 10.8888 14.2145 12.8472ZM7.1251 7.50348C7.64427 7.50348 8.15179 7.34953 8.58347 7.06109C9.01515 6.77265 9.3516 6.36268 9.55028 5.88303C9.74896 5.40337 9.80094 4.87557 9.69966 4.36637C9.59837 3.85717 9.34836 3.38944 8.98125 3.02233C8.61414 2.65521 8.14641 2.40521 7.63721 2.30392C7.12801 2.20263 6.60021 2.25462 6.12055 2.4533C5.6409 2.65198 5.23093 2.98843 4.94249 3.42011C4.65405 3.85179 4.5001 4.35931 4.5001 4.87848C4.5001 5.2232 4.56799 5.56455 4.69991 5.88303C4.83183 6.20151 5.02519 6.49088 5.26894 6.73464C5.76122 7.22692 6.4289 7.50348 7.1251 7.50348Z" fill="#1A1A1A"/>
</svg>
