<svg width="19" height="20" viewBox="0 0 19 20" fill="none" xmlns="http://www.w3.org/2000/svg">
<path d="M18.1462 7.57944L10.6509 0.504127L10.6359 0.490064C10.2915 0.174832 9.84146 0 9.37453 0C8.9076 0 8.45759 0.174832 8.11312 0.490064L8.09719 0.504127L0.60375 7.57944C0.413719 7.75526 0.262016 7.9684 0.15813 8.20553C0.054244 8.44266 0.000411405 8.69868 0 8.95757V17.6248C0 18.122 0.197544 18.5989 0.549175 18.9506C0.900805 19.3022 1.37772 19.4998 1.875 19.4998H6.375C6.87228 19.4998 7.34919 19.3022 7.70083 18.9506C8.05246 18.5989 8.25 18.122 8.25 17.6248V13.4998H10.5V17.6248C10.5 18.122 10.6975 18.5989 11.0492 18.9506C11.4008 19.3022 11.8777 19.4998 12.375 19.4998H16.875C17.3723 19.4998 17.8492 19.3022 18.2008 18.9506C18.5525 18.5989 18.75 18.122 18.75 17.6248V8.95757C18.7496 8.69868 18.6958 8.44266 18.5919 8.20553C18.488 7.9684 18.3363 7.75526 18.1462 7.57944ZM16.5 17.2498H12.75V13.1248C12.75 12.8785 12.7015 12.6347 12.6073 12.4072C12.513 12.1797 12.3749 11.973 12.2008 11.7989C12.0267 11.6248 11.82 11.4867 11.5925 11.3925C11.365 11.2983 11.1212 11.2498 10.875 11.2498H7.875C7.37772 11.2498 6.90081 11.4473 6.54917 11.7989C6.19754 12.1506 6 12.6275 6 13.1248V17.2498H2.25V9.11975L9.375 2.39319L16.5 9.11975V17.2498Z" fill="#3669C9"/>
</svg>
