<?xml version="1.0" ?><!DOCTYPE svg  PUBLIC '-//W3C//DTD SVG 1.1//EN'  'http://www.w3.org/Graphics/SVG/1.1/DTD/svg11.dtd'><svg height="100%" style="fill-rule:evenodd;clip-rule:evenodd;stroke-linejoin:round;stroke-miterlimit:2;" version="1.1" viewBox="0 0 32 32" width="100%" xml:space="preserve" xmlns="http://www.w3.org/2000/svg" xmlns:serif="http://www.serif.com/" xmlns:xlink="http://www.w3.org/1999/xlink"><g transform="matrix(1,0,0,1,-240,-288)"><g transform="matrix(1.16667,0,0,1,234.167,288)"><path d="M28.409,8.526C28.55,7.925 28.442,7.281 28.118,6.786C27.794,6.291 27.29,6 26.756,6C21.587,6 9.286,6 9.286,6L11.857,17L25.119,17C25.892,17 26.57,16.396 26.773,15.526C27.191,13.737 27.903,10.692 28.409,8.526Z" style="fill:rgb(144,224,239);"/></g><g transform="matrix(1.33333,0,0,1.33333,231.333,277)"><circle cx="15.5" cy="28.5" r="1.5" style="fill:rgb(144,224,239);"/></g><g transform="matrix(1.33333,0,0,1.33333,241.333,277)"><circle cx="15.5" cy="28.5" r="1.5" style="fill:rgb(144,224,239);"/></g><g transform="matrix(1,0,0,1,239,288)"><path d="M6,6C6,6 5.523,4.569 5.228,3.684C5.092,3.275 4.71,3 4.279,3C3.706,3 3,3 3,3" style="fill:rgb(144,224,239);"/></g><g transform="matrix(1,0,0,1,209.891,-0.419121)"><circle cx="55" cy="295" r="5" style="fill:rgb(144,224,239);"/></g><path d="M252,312C250.344,312 249,313.344 249,315C249,316.656 250.344,318 252,318C253.656,318 255,316.656 255,315C255,313.344 253.656,312 252,312ZM262,312C260.344,312 259,313.344 259,315C259,316.656 260.344,318 262,318C263.656,318 265,316.656 265,315C265,313.344 263.656,312 262,312ZM252,314C252.552,314 253,314.448 253,315C253,315.552 252.552,316 252,316C251.448,316 251,315.552 251,315C251,314.448 251.448,314 252,314ZM262,314C262.552,314 263,314.448 263,315C263,315.552 262.552,316 262,316C261.448,316 261,315.552 261,315C261,314.448 261.448,314 262,314ZM259.342,293C260.166,290.671 262.39,289 265,289C268.311,289 271,291.689 271,295C271,297.517 269.446,299.675 267.246,300.565L266.367,303.789C266.011,305.095 264.825,306 263.472,306L249.281,306L249.591,307.243C249.703,307.688 250.103,308 250.562,308L265,308C265.552,308 266,308.448 266,309C266,309.552 265.552,310 265,310L250.562,310C249.185,310 247.985,309.063 247.651,307.728L247.032,305.253L244.043,294.29L243.279,292L242,292C241.448,292 241,291.552 241,291C241,290.448 241.448,290 242,290C242,290 242.706,290 243.279,290C244.14,290 244.904,290.551 245.177,291.368L245.721,293L259.342,293ZM259,295L246.309,295C246.309,295 248.764,304 248.764,304C248.764,304 263.472,304 263.472,304C263.923,304 264.319,303.698 264.437,303.263L265.054,301C265.036,301 265.018,301 265,301C261.689,301 259,298.311 259,295ZM265,291C267.208,291 269,292.792 269,295C269,297.208 267.208,299 265,299C262.792,299 261,297.208 261,295C261,292.792 262.792,291 265,291ZM264,293L264,295C264,295.552 264.448,296 265,296L267,296C267.552,296 268,295.552 268,295C268,294.448 267.552,294 267,294L266,294C266,294 266,293 266,293C266,292.448 265.552,292 265,292C264.448,292 264,292.448 264,293Z" style="fill:rgb(25,144,167);"/></g></svg>