<svg xmlns="http://www.w3.org/2000/svg" viewBox="0 0 32 32" id="marketplace">
  <defs>
    <linearGradient id="a" x1="7.697" x2="24.583" y1="30.866" y2="1.618" gradientUnits="userSpaceOnUse">
      <stop offset="0" stop-color="#4c46c8"></stop>
      <stop offset="1" stop-color="#87bfff"></stop>
    </linearGradient>
  </defs>
  <path fill="url(#a)" d="M29 11.828a7.786 7.786 0 0 0-.23-1.874l-1.421-5.682A3 3 0 0 0 24.438 2H7.562a3 3 0 0 0-2.911 2.272L3.23 9.954A7.786 7.786 0 0 0 3 11.828a5.248 5.248 0 0 0 1.019 3.08A.937.937 0 0 0 4 15v12a3 3 0 0 0 3 3h18a3 3 0 0 0 3-3V15a.937.937 0 0 0-.019-.092A5.248 5.248 0 0 0 29 11.828ZM5.171 10.439l1.42-5.681A1 1 0 0 1 7.562 4h16.876a1 1 0 0 1 .971.758l1.42 5.681A5.755 5.755 0 0 1 27 11.828a3.12 3.12 0 0 1-2.692 3.157 2.982 2.982 0 0 1-2.73-1.214 1.9 1.9 0 0 0-1.531-.779h-.017a2.064 2.064 0 0 0-1.637.819 3 3 0 0 1-4.786 0 2.064 2.064 0 0 0-1.637-.819h-.017a1.9 1.9 0 0 0-1.531.779 2.983 2.983 0 0 1-2.73 1.214A3.12 3.12 0 0 1 5 11.828a5.755 5.755 0 0 1 .171-1.389ZM13 28v-5a1 1 0 0 1 1-1h4a1 1 0 0 1 1 1v5Zm12 0h-4v-5a3 3 0 0 0-3-3h-4a3 3 0 0 0-3 3v5H7a1 1 0 0 1-1-1V16.55a4.679 4.679 0 0 0 1.5.425c.17.017.34.025.509.025a5 5 0 0 0 4.008-1.981A4.962 4.962 0 0 0 16 17a4.782 4.782 0 0 0 3.965-2.046 4.971 4.971 0 0 0 4.535 2.021 4.68 4.68 0 0 0 1.5-.425V27a1 1 0 0 1-1 1Z"></path>
</svg>
