<svg xmlns="http://www.w3.org/2000/svg" enable-background="new 0 0 512 512" viewBox="0 0 512 512" id="shopping-cart">
  <path fill="#0635c9" d="M485.635,149.427l-369.823-28.355l-12.419-43.54c-3.328-11.667-14.133-19.812-26.271-19.812c-0.139,0-0.256,0.069-0.393,0.079C73.875,48.88,65.604,42.362,55.75,42.362H22.125C9.924,42.362,0,52.287,0,64.487c0,12.195,9.919,22.115,22.115,22.115H55.76c10.85,0,19.854-7.866,21.717-18.186c7.253,0.158,13.664,5.049,15.66,12.043c32.675,114.56,42.599,149.353,75.144,263.456c-0.211,12.668-13.115,25.013-24.019,33.187c-6.216,4.659-8.654,12.406-6.211,19.734c2.411,7.234,8.919,11.911,16.581,11.911h41.358c-6.387,6.465-10.342,15.333-10.342,25.112c0,19.729,16.068,35.779,35.815,35.779c19.729,0,35.779-16.049,35.779-35.779c0-9.779-3.951-18.647-10.331-25.112h136.291c-6.387,6.465-10.343,15.333-10.343,25.112c0,19.729,16.068,35.779,35.818,35.779c19.729,0,35.779-16.049,35.779-35.779s-16.049-35.779-35.779-35.779c-0.005,0-0.01,0-0.015,0c-0.001,0-0.002,0-0.004,0H154.633c-4.568,0-6.102-3.534-6.461-4.617c-0.768-2.305-0.518-5.573,2.49-7.826c16.273-12.203,25.781-24.892,27.864-37.026h257.633c12.359,0,23.268-7.857,27.141-19.544c49.569-149.239,47.236-141.954,47.453-142.966C516.041,168.763,503.925,150.864,485.635,149.427z M55.76,75.935H22.115c-6.312,0-11.448-5.135-11.448-11.448c0-6.318,5.141-11.458,11.458-11.458H55.75c6.318,0,11.458,5.141,11.458,11.458C67.208,70.8,62.073,75.935,55.76,75.935z M246.575,433.859c0,13.846-11.266,25.112-25.112,25.112c-13.867,0-25.148-11.266-25.148-25.112s11.281-25.112,25.148-25.112C235.31,408.747,246.575,420.013,246.575,433.859z M433.789,433.859c0,13.846-11.266,25.112-25.112,25.112c-13.867,0-25.151-11.266-25.151-25.112s11.284-25.112,25.151-25.112C422.523,408.747,433.789,420.013,433.789,433.859z M500.51,183.125c-1.211,3.937-26.166,78.827-47.333,142.583c-2.427,7.32-9.266,12.237-17.018,12.237H177.677l-16.606-58.195l-42.139-147.741l365.878,28.053C496.256,160.959,503.932,172.194,500.51,183.125z"></path>
  <path fill="#00cbf6" d="M199.909 195.245c-.813-2.831-3.76-4.474-6.602-3.648-2.831.815-4.464 3.771-3.648 6.602l28.872 100.276c.811 2.82 3.764 4.47 6.602 3.648 2.831-.815 4.464-3.771 3.648-6.602L199.909 195.245zM273.807 191.411c-2.932.281-5.081 2.888-4.799 5.82l9.625 100.276c.275 2.857 2.794 5.07 5.82 4.799 2.932-.281 5.081-2.888 4.799-5.82l-9.625-100.276C279.346 193.281 276.778 191.125 273.807 191.411zM354.362 191.411c-2.958-.284-5.539 1.872-5.82 4.799l-9.625 100.276c-.281 2.932 1.867 5.539 4.799 5.82 3.028.271 5.545-1.945 5.82-4.799l9.625-100.276C359.442 194.3 357.294 191.693 354.362 191.411zM434.859 191.596c-2.841-.828-5.786.818-6.602 3.648l-28.872 100.276c-.815 2.831.818 5.786 3.648 6.602 2.841.822 5.791-.831 6.602-3.648l28.872-100.276C439.323 195.367 437.69 192.411 434.859 191.596z"></path>
</svg>
