<svg width="21" height="22" viewBox="0 0 21 22" fill="none" xmlns="http://www.w3.org/2000/svg">
<path d="M19.275 4.74725L11.025 0.231309C10.7493 0.0795685 10.4397 0 10.125 0C9.8103 0 9.5007 0.0795685 9.225 0.231309L0.975 4.74725C0.679797 4.90877 0.433503 5.14675 0.261953 5.43624C0.0904038 5.72573 -7.78491e-05 6.05606 5.02575e-08 6.39256V15.3569C-7.78491e-05 15.6934 0.0904038 16.0238 0.261953 16.3132C0.433503 16.6027 0.679797 16.8407 0.975 17.0022L9.225 21.5182C9.50065 21.6701 9.81026 21.7498 10.125 21.7498C10.4397 21.7498 10.7494 21.6701 11.025 21.5182L19.275 17.0022C19.5702 16.8407 19.8165 16.6027 19.988 16.3132C20.1596 16.0238 20.2501 15.6934 20.25 15.3569V6.39256C20.2501 6.05606 20.1596 5.72573 19.988 5.43624C19.8165 5.14675 19.5702 4.90877 19.275 4.74725ZM10.125 2.30318L16.875 5.99975L14.8659 7.09943L8.11594 3.40381L10.125 2.30318ZM10.125 9.6935L3.375 5.99975L5.77125 4.68725L12.5212 8.38193L10.125 9.6935ZM2.25 7.94881L9 11.6426V18.8304L2.25 15.1347V7.94881ZM11.25 18.8304V11.6426L13.5 10.4116V13.1247C13.5 13.4231 13.6185 13.7093 13.8295 13.9202C14.0405 14.1312 14.3266 14.2497 14.625 14.2497C14.9234 14.2497 15.2095 14.1312 15.4205 13.9202C15.6315 13.7093 15.75 13.4231 15.75 13.1247V9.17974L18 7.94881V15.1347L11.25 18.8304Z" fill="#1A1A1A"/>
</svg>
