<svg width="11" height="11" viewBox="0 0 11 11" fill="none" xmlns="http://www.w3.org/2000/svg">
<path d="M10.9374 5.4687C10.9374 5.64275 10.8683 5.80966 10.7452 5.93273C10.6221 6.0558 10.4552 6.12494 10.2812 6.12494H6.12494V10.2812C6.12494 10.4552 6.0558 10.6221 5.93273 10.7452C5.80966 10.8683 5.64275 10.9374 5.4687 10.9374C5.29465 10.9374 5.12773 10.8683 5.00466 10.7452C4.8816 10.6221 4.81246 10.4552 4.81246 10.2812V6.12494H0.656244C0.482197 6.12494 0.315279 6.0558 0.192209 5.93273C0.0691398 5.80966 0 5.64275 0 5.4687C0 5.29465 0.0691398 5.12773 0.192209 5.00466C0.315279 4.8816 0.482197 4.81246 0.656244 4.81246H4.81246V0.656244C4.81246 0.482197 4.8816 0.315279 5.00466 0.192209C5.12773 0.0691398 5.29465 0 5.4687 0C5.64275 0 5.80966 0.0691398 5.93273 0.192209C6.0558 0.315279 6.12494 0.482197 6.12494 0.656244V4.81246H10.2812C10.4552 4.81246 10.6221 4.8816 10.7452 5.00466C10.8683 5.12773 10.9374 5.29465 10.9374 5.4687Z" fill="#1A1A1A"/>
</svg>
